<svg xmlns="http://www.w3.org/2000/svg" width="800" height="520" viewBox="0 0 800 520" fill="none">
  <rect width="800" height="520" rx="12" fill="#F8FAFC"/>
  <rect x="20" y="20" width="760" height="480" rx="8" fill="#FFFFFF" stroke="#E2E8F0"/>
  <rect x="20" y="20" width="160" height="480" rx="8" fill="#101B1B"/>
  <rect x="40" y="50" width="120" height="24" rx="4" fill="#0F766E"/>
  <rect x="40" y="90" width="100" height="16" rx="3" fill="#334155" opacity="0.5"/>
  <rect x="40" y="120" width="110" height="16" rx="3" fill="#334155" opacity="0.3"/>
  <rect x="40" y="150" width="90" height="16" rx="3" fill="#334155" opacity="0.3"/>
  <rect x="200" y="40" width="560" height="440" rx="6" fill="#F8FAFC"/>
  <rect x="220" y="60" width="200" height="200" rx="8" fill="#E0F7F3"/>
  <rect x="440" y="60" width="150" height="200" rx="8" fill="#FFF5ED"/>
  <rect x="610" y="60" width="130" height="200" rx="8" fill="#EFF8FF"/>
  <rect x="220" y="280" width="520" height="180" rx="8" fill="#FFFFFF" stroke="#E2E8F0"/>
  <text x="400" y="380" text-anchor="middle" font-family="sans-serif" font-size="14" fill="#94A3B8">产品工作台截图 - 待替换</text>
</svg>
